<svg xmlns="http://www.w3.org/2000/svg" xmlns:xlink="http://www.w3.org/1999/xlink" version="1.1" id="Layer_1" x="0px" y="0px" viewBox="0 0 1639 537" style="enable-background:new 0 0 1639 537;" xml:space="preserve">
    <style type="text/css">
        @keyframes drop {
            0% {
                transform: translateY(0px);
                opacity: 1;
              }
            60% {
                transform: translateY(250px);
              }
            91% {
                opacity: 0;
              }
        }

        #drop{animation: drop 3s ease infinite;}
        .st0{fill:#BDDEF0;}
        .st1{fill:#7BBCE2;}
        .st2{fill:#F37021;}
        .st3{fill:#F9A762;}
        .st4{fill:#E4EFF9;}
        .st5{fill:#91C7E7;}
        .st6{fill:#2A75BB;}
        .st7{fill:#CCF2F6;}
        .st8{fill:#238FCF;}
        .st9{fill:#A7D2EC;}
        .st10{clip-path:url(#SVGID_2_);fill:#E4EFF9;}
        .st11{clip-path:url(#SVGID_4_);fill:#A7D2EC;}
        .st12{fill:#162B48;}
        .st13{fill:#EAF6F7;}
        .st14{fill:#99E5EE;}
        .st15{fill:#FABD8A;}
    </style>
    <rect x="0.5" y="35" class="st0" width="1639" height="505"/>
    <g>
        <path class="st1" d="M482.4,271.7c-10.1,0-18.4-8.3-18.4-18.4s8.3-18.4,18.4-18.4s18.4,8.3,18.4,18.4             C500.8,263.5,492.5,271.7,482.4,271.7z M482.4,237.4c-8.8,0-15.9,7.2-15.9,15.9c0,8.8,7.2,15.9,15.9,15.9c8.8,0,15.9-7.2,15.9-15.9             C498.3,244.5,491.2,237.4,482.4,237.4z"/>
        <path class="st1" d="M469.1,253.3h26.5c0,7.3-5.9,13.2-13.2,13.2C475.1,266.6,469.1,260.7,469.1,253.3z"/>
        <circle class="st1" cx="482.4" cy="253.4" r="3.7"/>
        <rect x="475.8" y="269.9" class="st1" width="13.1" height="6.4"/>
        <path class="st1" d="M496.5,285.4v-5.6l0,0c-0.1-2-1.7-3.6-3.7-3.6l0,0l0,0H472c-2,0-3.7,1.7-3.7,3.7l0,0l0,0l0,0v5.4L496.5,285.4z             "/>
        <path class="st1" d="M470.2,252.3c0.5-6.3,5.8-11.2,12.2-11.2s11.7,5,12.2,11.2H470.2 M469.1,253.3h26.5c0-7.3-5.9-13.2-13.2-13.2             S469.1,246,469.1,253.3L469.1,253.3z"/>
        <polygon class="st1" points="481.2,250.5 479.8,251.9 475.4,246.5 475.7,246.2    "/>
    </g>
    <path id="drop" class="st1" d="M879.2,323c0-0.8-0.6-1.2-1.4-1.2c-0.8,0-1.4,0.6-1.4,1.2l-0.8,4.3c0,1.2,1,1.9,2.3,1.9         c1.2,0,2.3-1,2.3-1.9C880.2,327.5,879.2,323,879.2,323z"/>
    <g>
        <g>
            <g>
                <path class="st2" d="M746.1,273.8c-4.7,3.7-11.5,2.8-15.2-1.9c-3.1-4.1-3-9.6,0.2-13.5l5.9,7.6l3.8-3l-5.9-7.6                     c4.5-2.1,9.9-0.9,13.1,3.2C751.7,263.3,750.8,270.1,746.1,273.8z"/>
            </g>
            <path class="st2" d="M766.1,292l-19.3-24.9c-0.3-0.3-0.7-0.4-1.1-0.1l-6.1,4.7c-0.3,0.3-0.4,0.7-0.1,1.1l19.3,24.9                 c1.6,2,4.5,2.4,6.5,0.8l0,0C767.3,296.9,767.7,294,766.1,292z"/>
        </g>
        <g>
            <path class="st3" d="M682.5,522.5c6.5-41.6,11.2-137.4,11.2-143.9c0-8.4-7.6-15.2-17-15.2s-17,6.8-17,15.2                 c0,6.6,4.7,102.3,11.2,143.9H682.5z"/>
        </g>
        <g>
            <path class="st2" d="M715.7,522.5c6.5-41.6,11.2-137.4,11.2-143.9c0-8.4-7.6-15.2-17-15.2s-17,6.8-17,15.2                 c0,6.6,4.7,102.3,11.2,143.9H715.7z"/>
        </g>
        <g>
            <path class="st4" d="M642.1,309.4v82.4c0,8.8,7.1,15.9,15.9,15.9v-98.3L642.1,309.4L642.1,309.4z"/>
        </g>
        <g>
            <g>
                <path class="st5" d="M639.5,321.5h20.7v57.4h33.1V267.7C663.6,267.7,639.5,291.8,639.5,321.5z"/>
            </g>
            <g>
                <path class="st1" d="M693.3,267.7v111.1h33.1v-57.4H747C747,291.8,723,267.7,693.3,267.7z"/>
            </g>
        </g>
        <g>
            <path class="st6" d="M715.9,522.5h-12.7v12.7h12.7h12.7C728.6,528.2,722.9,522.5,715.9,522.5z"/>
        </g>
        <g>
            <path class="st6" d="M670.7,522.5h12.7v12.7h-12.7H658C658,528.2,663.7,522.5,670.7,522.5z"/>
        </g>
        <g>
            <polygon class="st7" points="684.9,258.5 701.6,258.5 701.6,268.4 693.3,280.6 684.9,268.4        "/>
        </g>
        <g>
            <circle class="st8" cx="693.3" cy="225" r="31.3"/>
        </g>
        <g>
            <g>
                <path id="XMLID_2_" class="st9" d="M722.5,223.8c-0.8-15.4-13.6-27.7-29.3-27.7s-28.4,12.3-29.3,27.7l0,0v8.4l0,0                     c0.7,15.5,13.6,27.9,29.3,27.9s28.6-12.4,29.3-27.9l0,0V223.8L722.5,223.8z"/>
            </g>
            <g>
                <g>
                    <defs>
                        <path id="SVGID_1_" d="M722.5,223.8c-0.8-15.4-13.6-27.7-29.3-27.7s-28.4,12.3-29.3,27.7l0,0v8.4l0,0                             c0.7,15.5,13.6,27.9,29.3,27.9s28.6-12.4,29.3-27.9l0,0V223.8L722.5,223.8z"/>
                    </defs>
                    <clipPath id="SVGID_2_">
                        <use xlink:href="#SVGID_1_" style="overflow:visible;"/>
                    </clipPath>
                    <path class="st10" d="M724.2,221.4c0.3-3.2-7.3-24.2-17.3-21c-15.8,5.1-26.5-0.8-27.9-0.5c-6.4,1.4-9.1,5.8-10.8,10.2                         c-1.9,4.9-3.4,4.9-5.9,11.2l0,0v8.9l0,0c0.8,16.5,14.4,16.5,31.1,16.5c16.7,0,30.4,0,31.1-16.5l0,0L724.2,221.4L724.2,221.4z"/>
                </g>
            </g>
            <g>
                <g>
                    <defs>
                        <path id="SVGID_3_" d="M722.5,223.8c-0.8-15.4-13.6-27.7-29.3-27.7s-28.4,12.3-29.3,27.7l0,0v8.4l0,0                             c0.7,15.5,13.6,27.9,29.3,27.9s28.6-12.4,29.3-27.9l0,0V223.8L722.5,223.8z"/>
                    </defs>
                    <clipPath id="SVGID_4_">
                        <use xlink:href="#SVGID_3_" style="overflow:visible;"/>
                    </clipPath>
                    <path class="st11" d="M676.6,257.5c0-9.4,7.6-16.9,16.9-16.9c9.4,0,16.9,7.6,16.9,16.9"/>
                </g>
            </g>
        </g>
        <g>
            <circle class="st12" cx="680.6" cy="230.2" r="2"/>
        </g>
        <g>
            <circle class="st12" cx="706" cy="230.2" r="2"/>
        </g>
        <g>
            <path class="st13" d="M685.9,248.2h14.8C700.7,248.2,694.1,255.5,685.9,248.2z"/>
        </g>
        <g>
            <polygon class="st1" points="684.9,268.4 682.6,283.1 693.3,280.6        "/>
        </g>
        <g>
            <polygon class="st5" points="701.6,268.4 703.9,283.1 693.3,280.6        "/>
        </g>
        <g>
            <circle class="st3" cx="689.9" cy="293.2" r="1.2"/>
        </g>
        <g>
            <circle class="st14" cx="689.9" cy="307" r="1.2"/>
        </g>
        <g>
            <circle class="st14" cx="689.9" cy="320.9" r="1.2"/>
        </g>
        <g>
            <circle class="st14" cx="689.9" cy="334.7" r="1.2"/>
        </g>
        <g>
            <circle class="st14" cx="689.9" cy="348.5" r="1.2"/>
        </g>
        <g>
            <circle class="st14" cx="689.9" cy="362.3" r="1.2"/>
        </g>
        <path class="st8" d="M669.4,203.7c0,0-5.4-5.8-8.7,1.9s2.6,21.7,2.6,21.7s0-15.4,6.6-17.4c3.1-1,5.6,1.2,5.6,1.2s5.3-6.9,13.2-2.7             s23.8,15.4,31.1,14.8c15.3-1.1,14-20.3,6.8-26.1c0.7,3.5-3.2,6.9-8.1,5c-4.8-1.9-18.6-13.9-31.6-11.8             C673.7,192.4,669.1,198.4,669.4,203.7z"/>
        <g>
            <g>
                <path class="st2" d="M677.7,236.4c-0.9,0-1.6,0-2.3-0.1c-2.6-0.2-5.3-1.2-5.7-2.2c-0.2-0.5-0.7-6.1-0.7-6.8                     c0-1.4,0.6-1.8,1.7-2.3c0.2-0.1,0.4-0.2,0.7-0.3h0.1c3-0.9,5.5-1,7.2-1c0.3,0,0.5,0,0.8,0h0.1h0.1c0.2,0,0.7,0,1.4,0.1                     c3,0.1,6.3,0.2,7.6,0.5c1.5,0.3,2.5,1.1,2.7,2.1l0,0c0.1,0.6-0.7,5.6-1,6.9c-0.7,2.6-4.7,2.7-5.2,2.7                     C685,236.1,680.8,236.4,677.7,236.4z M671.6,233.2c0.5,0.3,2,0.9,4,1.1c2.7,0.2,9.5-0.2,9.5-0.2c1,0,3.1-0.3,3.3-1.2                     c0.4-1.7,0.9-5.2,1-6c-0.1-0.2-0.6-0.5-1.2-0.6c-1.2-0.3-5.3-0.4-7.2-0.5c-0.7,0-1.2,0-1.5-0.1c-0.2,0-0.5,0-0.8,0                     c-1.5,0-3.8,0-6.5,0.8c-0.3,0.1-0.5,0.2-0.7,0.3s-0.4,0.2-0.5,0.2c0,0,0,0.1,0,0.2C671,228.2,671.5,232,671.6,233.2z                      M671.4,233.1L671.4,233.1L671.4,233.1z"/>
            </g>
            <g>
                <path class="st2" d="M709.3,236.4c-3.1,0-7.3-0.2-7.5-0.2l0,0c-0.5,0-4.5-0.1-5.1-2.7c-0.3-1.3-1.2-6.3-1-6.9l0,0l1,0.2l-1-0.2                     c0.3-1.1,1.2-1.8,2.7-2.1c1.3-0.3,4.6-0.4,7.6-0.5c0.7,0,1.3,0,1.4-0.1h0.1h0.1c0.2,0,0.5,0,0.8,0c1.6,0,4.1,0,7.2,1h0.1                     c0.3,0.1,0.5,0.2,0.7,0.3c1.1,0.5,1.7,0.8,1.7,2.3c0,0.7-0.6,6.3-0.7,6.8c-0.4,0.9-3.1,2-5.7,2.2                     C710.9,236.3,710.2,236.4,709.3,236.4z M697.6,226.9c0.1,0.8,0.6,4.3,1,6c0.2,0.9,2.3,1.2,3.3,1.2c0.1,0,6.8,0.4,9.6,0.2                     c2-0.1,3.4-0.8,4-1.1c0.2-1.2,0.6-5,0.6-5.8c0-0.1,0-0.1,0-0.2c-0.1-0.1-0.3-0.2-0.5-0.2c-0.2-0.1-0.4-0.2-0.7-0.3                     c-2.7-0.8-5-0.8-6.5-0.8c-0.3,0-0.5,0-0.8,0c-0.2,0-0.8,0-1.5,0.1c-2,0.1-6,0.2-7.2,0.5C698.1,226.5,697.7,226.7,697.6,226.9z                      M715.6,233.1L715.6,233.1L715.6,233.1z M696.6,226.8l1,0.2L696.6,226.8z"/>
            </g>
            <g>
                <rect x="690.4" y="226.6" class="st2" width="6.3" height="2"/>
            </g>
        </g>
        <g>
            <g>
                <path class="st4" d="M748.1,337.5h-7.3l-12.1-16h35.5v1.8C763.9,327.4,761.9,337.5,748.1,337.5z"/>
            </g>
            <g>
                <path class="st4" d="M748.1,337.5v-63.6c8.8,0,16,7.2,16,16v33.4C763.9,327.4,761.9,337.5,748.1,337.5z"/>
            </g>
        </g>
        <rect x="659.7" y="303.7" class="st3" width="33.5" height="75.1"/>
        <rect x="692.8" y="303.7" class="st2" width="34.1" height="75.1"/>
        <rect x="667.8" y="269.6" class="st2" width="8.3" height="34.1"/>
        <rect x="711.9" y="269.6" class="st3" width="8.3" height="34.1"/>
        <rect x="676.4" y="312.8" class="st15" width="35.6" height="23.1"/>
    </g>
    <g>
        <path class="st9" d="M762.5,475.9L762.5,475.9c0-2.4,2-4.4,4.4-4.4h82.3c2.4,0,4.4,2,4.4,4.4l0,0c0,2.4-2,4.4-4.4,4.4h-82.3             C764.5,480.3,762.5,478.4,762.5,475.9z"/>
        <rect x="767.1" y="469.9" class="st1" width="8.8" height="33"/>
        <rect x="840.2" y="469.9" class="st1" width="8.8" height="33"/>
        <g>
            <polygon class="st6" points="823.2,502.9 816.1,502.9 816.6,470.9 822.7,470.9        "/>
            <path class="st8" d="M831.1,463c0,0-0.3,1.4-2.4,1.4c-2.1,0.1-2.5-2.7-4.4-3l-0.3-0.1V461h-10v1.1c-1,0.2-3.5,0.9-7.3,3.4                 c-6.2,4.1-6.7,8.7-6.8,10.3c-0.1,1.7,0.3,2.5,1,2.5s0.8-3.5,4.4-5.2c3.6-1.8,7.3-0.7,8.1-0.1c0.3,0.2,0.6,0.4,0.6,0.5v1.6h10v-0.7                 c0,0,0.2,0,0.3,0c1.9-0.3,2.2-2.9,4.3-2.8s2.5,1.5,2.5,1.5h6.9v-3.5v-3.4V463H831.1z"/>
        </g>
        <g>

                <rect x="781.4" y="492.7" transform="matrix(0.7208 -0.6931 0.6931 0.7208 -122.6727 683.3625)" class="st6" width="11.2" height="2.5"/>
            <path class="st8" d="M780.2,481.8c-0.2,0.2-0.4,0.5-0.6,0.7c0.9,0.7,1.8,1.4,2.6,2.2c1.4,1.4,3.7,2.9,3.6,4.3                 c-0.1,1.5-2.5,2.7-3.9,4.2c-0.9,1-1.5,0.9-2.4-0.1c-1.3-1.5-2.7-2.9-4.1-4.2c-0.7-0.7-1.3-2.2-2.3-1.8c-1.4,0.5-1.6,2.2-1.6,3.6                 c0,1.1,0.2,2.1,0.6,3.1c1.3,3.2,3.6,5.6,6,8c0.6,0.6,1.3,0.5,2,0.5c4.1-0.5,8.1-0.9,12.2-1.4c1.6-0.2,2.7,0.2,3.9,1.4                 c6.3,6.7,12.8,13.3,19.2,20c0.6,0.6,1.1,1.2,1.8,1.6c1.7,1.1,3.9,0.5,5.4-1.3c1.2-1.6,1.2-3.1-0.3-4.6c-1.1-1-21.2-22-30.3-31.4                 c-0.5-0.5-1-1.9-2.1-1s-1.5,0.1-2.2-0.4C785.6,483.2,783.4,481.2,780.2,481.8z M792.6,490.9l-8.8,8.4l-2.4-2.5l8.8-8.4                 L792.6,490.9z"/>
        </g>
        <path class="st9" d="M844.1,534.8h-72c-2.8,0-5-2.2-5-5v-26.9h82v26.9C849.1,532.6,846.8,534.8,844.1,534.8z"/>
    </g>
    <path class="st1" d="M1060.8,492.8c-2-0.1-3.6-1.7-3.6-3.7l0,0l0,0v-20.8c0-2,1.6-3.6,3.6-3.7l0,0h0.2h5.4h0.1l0,0         c2,0.1,3.6,1.7,3.6,3.7l0,0l0,0v20.8c0,2-1.6,3.6-3.6,3.7l0,0h-0.2H1060.8L1060.8,492.8L1060.8,492.8z"/>
    <path class="st1" d="M1178.2,492.8c-2-0.1-3.6-1.7-3.6-3.7l0,0l0,0v-20.8c0-2,1.6-3.6,3.6-3.7l0,0h0.2h5.4h0.1l0,0         c2,0.1,3.6,1.7,3.6,3.7l0,0l0,0v20.8c0,2-1.6,3.6-3.6,3.7l0,0h-0.2H1178.2L1178.2,492.8L1178.2,492.8z"/>
    <polygon class="st1" points="1028.1,452.9 1028.1,449.7 1055.9,449.7 1058.1,455.3 1061.2,455.3 1061.2,453.6 1065.1,453.6         1065.1,455.3 1069.2,455.3 1069.2,462 1065.4,462 1065.4,464.7 1061.5,464.7 1061.5,462.2 1053,462.2 1050.8,455.2 "/>
    <path class="st1" d="M1219.1,456c-0.1,2-1.7,3.6-3.7,3.6l0,0l0,0h-20.8c-2,0-3.6-1.6-3.7-3.6l0,0v-0.2v-5.4v-0.1l0,0         c0.1-2,1.7-3.6,3.7-3.6l0,0l0,0h20.8c2,0,3.6,1.6,3.7,3.6l0,0v0.2V456L1219.1,456L1219.1,456z"/>
    <g>
        <path class="st1" d="M1178.7,169.8c-0.1,0.1-4,0.1-8.7,0.1l0,0c0-1.9-1.5-3.4-3.4-3.4c-0.6,0-1.2,0.2-1.7,0.5l-7.9-3.3l-1,2.3             l7.3,3.1c-0.1,0.3-0.1,0.5-0.1,0.8l0,0c-4.7,0-8.7-0.1-8.7-0.1c0,6.7,5.4,12.1,12.1,12.1C1173.3,181.9,1178.7,176.5,1178.7,169.8z"/>
        <path class="st1" d="M301.4,324.5c-0.6,0-1.2,0.2-1.7,0.4l-5-3.9l-0.3,0.3l3.9,4.8c-0.4,0.6-0.6,1.3-0.6,2.1c0,2,1.7,3.7,3.7,3.7             s3.7-1.7,3.7-3.7S303.5,324.5,301.4,324.5z"/>
        <rect x="295" y="314" class="st1" width="1" height="3"/>
        <rect x="295" y="340" class="st1" width="1" height="3"/>
        <rect x="307" y="328" class="st1" width="3" height="1"/>
        <path class="st1" d="M180.4,168.6L180.4,168.6L180.4,168.6z"/>
        <path class="st1" d="M915,312.4V312h-0.3c-0.1,0-0.7,0.3-0.7,0.3V312h-37.9l-3.4,4.5l3.7,4.8l-4.8,5.5l5.3,4v0.2c0,0-0.1,0,0,0l0,0             h38c4.9,0,9.1,3.4,9.1,8.3v58c0,4.9-4.4,8.6-9.3,8.6H438v-94.6c0-4.6,3.8-8.4,8.3-8.4h66.9l-0.1-0.3c15-0.4,26.9-12.9,26.9-28l0,0             l0,0v-41.8c0-15.3-12-27.8-28-27.8l0,0h0.4l0,0h-0.2h-0.1H444v-1.1c0-2-1-3.6-3-3.7V200h-0.5h-5.4H435v0.2c-2,0.1-4,1.7-4,3.7l0,0             l0,0v1.1h-1.4c-4.7,0-8.6-4-8.8-8h1.2c2,0,3.6-2,3.7-4h0.3l0,0v-5.4v0.4h-0.3c-0.1-2-1.7-4-3.7-4l0,0l0,0h-1v-15.4l-0.2,0.2             c-0.4-15-12.8-26.8-27.9-26.8l0,0l0,0h-78.7c-15.3,0-27.8,12-27.8,27H286v0.4l0,0v48.1c0,4.9-3.8,8.7-8.7,8.7l0.2-0.2H190             c-4.9,0-9-3.2-9-8.1V201h1.2c2,0,3.6-1,3.7-3h0.1v-0.4v-5.4V192h-0.1c-0.1-2-1.7-3-3.7-3l0,0l0,0h-4c0-1-0.2-0.6-0.2-0.7v-14.4             l2.4-4.9H178v-1.5l0,0l0,0c0-2-1-3.6-3-3.7v0.2h-0.5H174v-3h3v-7h-4v-1h-4v1h-2.6l-2.3-5H136v3.1l22.8,2l2.4,6.9h8.8v3h-0.9H169             v-0.2c-2,0.1-4,1.7-4,3.7v1.5h-6l0,0l0,0v-0.4c-15,0-27.6,12.4-27.8,27.4h18.5c0-5,4-9,8.9-9h6.5v1.3l0,0l0,0             c0,0.1,0.4-0.3,0.4,0.7h-4.1c-2,0-3.6,1-3.7,3h0.3v0.2v5.4v0.4h-0.3c0.1,2,1.7,3,3.7,3l0,0l0,0h1.6v16.1c0,15.1,12,27.4,27,27.8             v0.1h0.3c0.1,0,0.7-0.1,0.7-0.1v0.1h87.4v-0.2c14.8-0.7,26.5-12.8,26.5-27.8h0.1v0.1l0,0V169c0-4.9,3.9-9,8.8-9h79.6             c4.6,0,8.6,3.6,8.6,8v16h-0.8c-2,0-3.6,2-3.7,3H397v0.7v5.4l0,0h0.5c0.1,2,1.7,4,3.7,4l0,0l0,0h1.1c0.5,15,12.7,26.8,27.7,26.9v0.1             h1v0.7c0,2,2,3.6,4,3.7V228h0.1h5.4h0.5v0.4c2-0.1,3-1.7,3-3.7l0,0V224h42.3l0,0h26.5c4.9,0,9.2,3.6,9.2,8.5v42.7             c0,4.9-4.3,8.8-9.2,8.8h-5.5l0,0h-60.5l0.1,0.1c-15,0.4-26.9,12.7-26.9,27.8l0,0l0,0V406h-48.2h-31.1l0,0h-26.5             c-4.9,0-9.2-4.1-9.2-9v-12c0-4.9,4.1-8.9,9-8.9l0.2-0.1h56.4c14.9,0,27-12,27.8-26H398v-0.3l0,0v-56.4c0-15.3-12-27.8-27-27.8v0.5             h-0.4l0,0h-44.4h-12H84.4C69.1,266,57,278,57,293.3l0,0l0,0v55.4c0,15.1,12,27.4,27,27.8v0.5h0.1c0.1,0-0.1-0.4-0.1-0.4v0.4h204.3             c-0.9,2-1.5,5-1.5,8h0.2v0.5l0,0V397h-0.2c0.1,15,12.2,27.4,28.2,27.4V424h-0.4l0,0h0.3H371h543.3c15.4,0,27.7-12.1,27.7-27.4l0,0             l0,0v-56.4C942,325,930,312.7,915,312.4z M301.4,344.1c-8.8,0-15.9-7.2-15.9-15.9s7.2-15.9,15.9-15.9s15.9,7.2,15.9,15.9             S310.2,344.1,301.4,344.1z M83.8,358c-4.9,0-8.8-3.6-8.8-8.4v-57c0-4.9,4.1-8.5,9-8.5h229.4h13.3h17.9l0,0H371c4.9,0,9,4,9,8.9v56             c0,4.9-4.1,9.2-9,9.2h-55v-3h-0.5c-0.1-2-1.7-4-3.7-4l0,0l0,0H308v-5.7c7-2.7,11.8-9.3,11.8-17.2c0-10.1-8.3-18.3-18.4-18.3             c-10,0-18.2,8.2-18.4,18.2h-1v1h1.1c0.3,7,4.9,13.7,11.9,16.3v5.7h-4c-2,0-3.8,1.6-3.8,3.7h-0.1l0,0l0,0v3.3H83.8V358z"/>
        <path class="st1" d="M1584,327v-0.4l0,0v-97.5c0-15.3-12-27.8-27-27.8V201h-0.4l0,0H1181v-5h-0.3c-0.1-2-1.7-3-3.7-3l0,0l0,0h-4             v-5.3c7-2.7,12.6-9.7,12.6-17.9c0-10.5-8.5-19.1-19.1-19.1c-10.5,0-19.1,8.6-19.1,19.1c0,8.2,5.5,15.2,12.5,17.9v5.3h-3.8             c-2,0-3.9,1.5-3.9,3.5l-0.2-0.2l0,0l0,0v4.7h-2.1c-12.1,0-22.4,8-26.3,19c-1.1,0-2,0-2,0l0,0H800.9c-15.4,0-27.9,12.1-27.9,27.4             l0,0l0,0v56.4c0,15.1,12,27.4,27,27.8v0.3h0.5c0.1,0,0.5-0.3,0.5-0.3v0.3h38l-5.1-4.3l5.5-6.4l-5.4-2.3l4-5.8V313h0.2l0,0h-38             c-4.9,0-8.2-3.4-8.2-8.3v-58c0-4.9,3.5-8.7,8.4-8.7H1122v47.5c0,15.1,12,27.4,27,27.8V313h0.5c0.1,0,0.5,0.3,0.5,0.3V313h152v17             h-0.9c-2,0-3.6,2-3.7,4h-0.4v-0.2v5.4V339h0.4c0.1,2,1.7,4,3.7,4l0,0l0,0h0.9v1.6c0,4.7-3,9.1-8,9.4v-1.8c0-2-2-3.6-4-3.7V348h0.2             h-5.4h0.1v0.5c-2,0.1-4,1.7-4,3.7l0,0l0,0v1.8h-58.2l0.1-0.2c-14.9,0.4-26.8,12.3-26.9,27.2l0,0v79.5c0,4.9-4.2,9.5-9.1,9.5h-114.7             l0,0h-8.5H1051v-0.7c-16,0-27.8,12.7-28,27.7h18.5c0-5,4-9,8.9-9h8.8l0,0h5.4H1186v-0.2c16,0,28-12.5,28-27.8v-79.2             c0-4.6,3.8-7.8,8.3-8.8h58.7v1.1c0,2,2,3.6,4,3.7v0.2h-0.1h5.4h-0.3v-0.2c2-0.1,4-1.7,4-3.7l0,0l0,0V372             c15-0.5,26.8-12.7,26.9-27.7h0.1V343h1c2,0,3.6-2,3.7-4h0.3v0.1v-5.4v0.3h-0.3c-0.1-2-1.7-4-3.7-4l0,0l0,0h-0.9v-42.1l0,0v-26.5             c0-4.9,3.8-8.4,8.7-8.4H1432v0.7c0,2,1,3.6,3,3.7V257h0.4h5.4h0.2v0.4c2-0.1,3-1.7,3-3.7l0,0l0,0V253c5,0,9,3.5,9,8.4v5.5l0,0v60.5             l0.2,0.3c0.4,15,12.8,27.3,27.9,27.3l0,0l0,0h-0.2v0.5c0,2,2,3.6,4,3.7V359l0,0h5.4h-0.4v0.2c2-0.1,4-1.7,4-3.7l0,0l0,0V355h50v0.5             c0,2,1,3.6,3,3.7V359h0.4h5.4h0.2v0.2c2-0.1,3-1.7,3-3.7l0,0l0,0V355h0.6c15.3,0,27.8-13,27.8-28H1584z M1151.4,169.8             c0-8.4,6.8-15.2,15.2-15.2c8.4,0,15.2,6.8,15.2,15.2s-6.8,15.2-15.2,15.2C1158.2,185,1151.4,178.2,1151.4,169.8z M1566,327             c0,4.9-4.1,9-9,9h-1v-1.3c0-2-1-3.6-3-3.7l0,0h-0.3h-5.4h-0.4l0,0c-2,0.1-3,1.7-3,3.7l0,0l0,0v1.3h-50v-1.3c0-2-2-3.6-3-3.7l0,0             h-0.6h-5.4l0,0l0,0c-2,0.1-4,1.7-4,3.7l0,0l0,0v1.3h-0.3c-4.6,0-8.7-3.6-8.7-8v-67h-0.4c-0.4-14.8-12.6-26.7-27.6-27v-1.2             c0-2-1-3.6-3-3.7V229h-0.2h-5.4h-0.4v0.2c-2,0.1-3,1.7-3,3.7l0,0l0,0v1.1h-101.8c-15.3,0-27.8,13-27.8,28h-0.4v0.1v0.1V295h-152.7             c-4.9,0-8.3-3.8-8.3-8.7v-58c0-4.9,3.6-8.3,8.5-8.3H1557c4.9,0,9,3.7,9,8.6V327z"/>
    </g>
</svg>