<?xml version="1.0" encoding="UTF-8"?>
<svg version="1.1" xmlns="http://www.w3.org/2000/svg" width="204" height="204">
<path d="M0 0 C1.73718186 0.00360144 3.47436458 0.0068051 5.21154785 0.00964355 C9.90331747 0.01896278 14.59503516 0.03528291 19.28677583 0.05401397 C22.21996156 0.06569129 25.15314947 0.07634579 28.08633995 0.08675575 C37.27057637 0.1199261 46.45477641 0.15792136 55.63896638 0.20212096 C66.23068542 0.25295854 76.82229015 0.2871371 87.41411096 0.3073017 C95.61397937 0.3239692 103.81370222 0.35582197 112.01347274 0.39914781 C116.90680858 0.42464061 121.79996313 0.44357899 126.69336891 0.44652367 C131.28924766 0.4496721 135.88465332 0.47161935 140.48038483 0.50807953 C142.16661318 0.51820079 143.85289809 0.52152083 145.53915215 0.51754951 C147.84079984 0.51316716 150.14098609 0.5332612 152.44245911 0.55949402 C154.37395168 0.566973 154.37395168 0.566973 156.3444643 0.57460308 C160.26093127 1.17126361 161.91134626 2.32296174 164.69604492 5.08520508 C168.68186599 13.05684721 166.83770407 24.66698445 166.82543945 33.40771484 C166.8267967 35.03988687 166.82857845 36.67205859 166.83074951 38.30422974 C166.83528494 42.71113382 166.83355045 47.11801433 166.83037043 51.52491879 C166.82782709 56.1504785 166.83018981 60.77603628 166.83175659 65.40159607 C166.83357235 73.16617187 166.83118736 80.93073814 166.82641602 88.6953125 C166.82097262 97.65670522 166.82273901 106.61807519 166.82824242 115.57946736 C166.83278817 123.2918497 166.833417 131.00422521 166.83080375 138.71660846 C166.82924927 143.31493212 166.82902448 147.91324511 166.83234024 152.51156807 C166.83524028 156.83476572 166.83320421 161.15793418 166.82744598 165.48112869 C166.82612988 167.06250014 166.82649285 168.64387408 166.82870865 170.22524452 C166.8559586 191.65761902 166.8559586 191.65761902 163.25854492 196.08520508 C159.25384812 199.21082209 156.50398437 199.23367452 151.58648682 199.2323761 C150.84580483 199.23605279 150.10512285 199.23972947 149.34199595 199.24351758 C146.84704963 199.25457678 144.35214493 199.25840204 141.85717773 199.26220703 C140.07353584 199.26847001 138.28989525 199.27511666 136.5062561 199.28211975 C131.65075917 199.29954519 126.79527209 199.31008578 121.93975163 199.31832528 C118.90743144 199.32347231 115.87511434 199.32954818 112.84279633 199.33583641 C103.35902255 199.35489304 93.87525658 199.36912301 84.39146733 199.37744838 C73.43735801 199.38722268 62.48345065 199.41354529 51.52941251 199.45394927 C43.06735093 199.48409238 34.6053473 199.49891555 26.14323306 199.50222939 C21.08704855 199.504582 16.0310797 199.51356971 10.9749527 199.53869057 C6.21758546 199.56194463 1.46057627 199.56621526 -3.29683304 199.55592918 C-5.04233871 199.55543306 -6.78786184 199.56177608 -8.53331375 199.57548523 C-10.91812641 199.59316695 -13.30164898 199.58611726 -15.6864624 199.57295227 C-16.3757737 199.58392152 -17.06508501 199.59489076 -17.77528453 199.60619241 C-22.69850047 199.54066397 -25.50881201 198.15857598 -29.30395508 195.08520508 C-30.53128159 192.63055205 -30.46161407 190.96919458 -30.50927734 188.22314453 C-30.52921249 187.19729248 -30.54914764 186.17144043 -30.56968689 185.11450195 C-30.58640945 183.9872168 -30.60313202 182.85993164 -30.62036133 181.69848633 C-30.64123306 180.5205249 -30.6621048 179.34256348 -30.68360901 178.12890625 C-30.73892034 174.89652597 -30.78939556 171.66412188 -30.836586 168.43161392 C-30.8665866 166.38874928 -30.89795654 164.34590946 -30.92962646 162.30307007 C-31.35014287 134.92657598 -31.49468361 107.55525389 -31.31710052 80.17578125 C-31.30311487 77.95158333 -31.29040466 75.72738051 -31.27789307 73.50317383 C-31.22045397 63.46746357 -31.14134904 53.43217843 -31.03948975 43.39682007 C-31.00618716 40.07703402 -30.97936511 36.75729269 -30.95806885 33.43740845 C-30.93242365 29.5265514 -30.89220919 25.61610726 -30.8408947 21.70550537 C-30.82422387 20.25494296 -30.81260548 18.80431274 -30.80630684 17.35366821 C-30.79673129 15.35822404 -30.76702699 13.36290678 -30.73632812 11.36767578 C-30.72522507 10.24561234 -30.71412201 9.12354889 -30.7026825 7.96748352 C-30.24859602 4.68503142 -29.53365898 3.48833929 -27.30395508 1.08520508 C-19.15001317 -1.55584673 -8.56131491 -0.03604807 0 0 Z M50.19604492 32.58520508 C48.78736509 33.66095425 47.37850593 34.73646861 45.96948242 35.81176758 C44.90358887 36.63016113 44.90358887 36.63016113 43.81616211 37.46508789 C41.15389108 39.49949951 38.4678639 41.50078436 35.7800293 43.5012207 C28.59168192 48.85485529 21.49953363 54.32412026 14.44262695 59.84960938 C8.58578699 64.42522582 2.6523868 68.89022743 -3.35473633 73.2668457 C-6.23492636 75.39270025 -8.29907861 77.07789038 -10.30395508 80.08520508 C-10.5975813 82.02618269 -10.5975813 82.02618269 -10.54446411 84.16642761 C-10.54721344 84.9951387 -10.54996277 85.82384979 -10.55279541 86.67767334 C-10.54560486 87.58325989 -10.53841431 88.48884644 -10.53100586 89.421875 C-10.53129791 90.37816299 -10.53158997 91.33445099 -10.53189087 92.31971741 C-10.53049593 95.48512806 -10.51492687 98.65030423 -10.49926758 101.81567383 C-10.49553804 104.00856904 -10.49269079 106.20146593 -10.49069214 108.3943634 C-10.48305107 114.16971426 -10.46339845 119.94496472 -10.44128418 125.72027588 C-10.42083599 131.61208742 -10.41169262 137.50391516 -10.40161133 143.39575195 C-10.38015306 154.95894713 -10.34601135 166.52206776 -10.30395508 178.08520508 C-4.62447544 179.97836496 1.63679067 179.67316601 7.58911133 179.81982422 C9.22675046 179.87121187 10.86384522 179.94592991 12.49926758 180.04541016 C21.17412701 180.56258896 27.81564338 180.6728454 34.61709595 174.73429871 C37.12423236 172.28920969 39.43828472 169.76324208 41.69604492 167.08520508 C41.03604492 166.75520508 40.37604492 166.42520508 39.69604492 166.08520508 C39.03604492 166.41520508 38.37604492 166.74520508 37.69604492 167.08520508 C30.04118992 167.7466019 22.94300234 168.0033141 16.69604492 163.08520508 C10.69087912 157.37791456 7.61692817 152.7022285 7.36010742 144.2512207 C7.33414057 142.85290548 7.31586636 141.4544255 7.30541992 140.0559082 C7.12886731 134.88193592 5.65533654 132.22939235 2.69604492 128.08520508 C2.69604492 126.76520508 2.69604492 125.44520508 2.69604492 124.08520508 C6.54764142 122.95790854 8.92934077 122.86706873 12.44604492 124.71020508 C15.72464392 126.55626307 16.60566787 128.5212875 17.69604492 132.08520508 C17.98500055 134.24702123 18.23304055 136.41458913 18.44604492 138.58520508 C19.18409108 144.11152038 19.18409108 144.11152038 22.44604492 148.39770508 C26.0465975 150.26722277 27.71449475 150.74879677 31.69604492 150.08520508 C35.10175985 148.81640932 37.18434338 147.64642612 39.63354492 144.96020508 C41.5014594 139.90584824 40.66790781 135.49991056 38.68041992 130.56176758 C36.72510513 126.5397593 34.51907709 122.76151785 32.07104492 119.02270508 C29.44229544 114.93905023 27.98770048 110.74600414 26.69604492 106.08520508 C26.46916992 105.28083008 26.24229492 104.47645508 26.00854492 103.64770508 C24.57615135 91.90207778 26.93375558 80.75844048 34.00073242 71.08129883 C40.93354666 62.91846916 49.89988139 57.03865365 60.75244141 55.86230469 C74.10772338 55.1577934 85.47218097 56.78395356 96.44213867 65.04223633 C104.71926647 72.54472825 110.07365462 83.30292521 110.71557617 94.47583008 C110.61962587 107.29478994 105.17135279 117.15930937 99.02416992 128.04614258 C95.96015575 133.64055047 94.89608717 136.83829289 96.69604492 143.08520508 C98.84364739 146.49174692 100.8087707 148.86349032 104.69604492 150.08520508 C108.12891378 150.65734989 110.47524954 150.90815197 113.44604492 148.90551758 C117.78730124 144.54338984 118.19603518 140.71907003 118.43432617 134.74536133 C118.83941383 130.62797785 120.23544582 128.38943815 122.69604492 125.08520508 C124.57104492 123.58520508 124.57104492 123.58520508 126.69604492 123.08520508 C129.94604492 123.46020508 129.94604492 123.46020508 132.69604492 124.08520508 C133.02604492 125.73520508 133.35604492 127.38520508 133.69604492 129.08520508 C132.72151367 129.34624023 132.72151367 129.34624023 131.72729492 129.61254883 C131.05698242 130.09852539 130.38666992 130.58450195 129.69604492 131.08520508 C129.33171126 133.71144357 129.19247067 136.01973289 129.19604492 138.64770508 C128.99281803 145.26804192 128.21342681 150.33381036 124.69604492 156.08520508 C124.15463867 157.05200195 124.15463867 157.05200195 123.60229492 158.03833008 C120.63754267 162.80597221 117.15634516 165.62854351 111.69604492 167.08520508 C104.91212229 167.74037609 99.10730232 167.49183323 92.69604492 165.08520508 C93.77844339 166.2036835 94.87347143 167.31077214 96.00048828 168.38427734 C97.69604492 170.08520508 97.69604492 170.08520508 99.51855469 172.33105469 C104.01786634 177.29464898 107.67881722 179.58529344 114.30383301 179.96696472 C118.46437355 180.02233224 122.60236204 179.88733432 126.75854492 179.71020508 C128.48697886 179.67357129 130.21550357 179.64098547 131.9440918 179.61254883 C139.33104614 180.0770423 139.33104614 180.0770423 145.69604492 178.08520508 C145.87669313 175.04490441 145.9916359 172.02602751 146.06347656 168.98242188 C146.08932327 168.02619431 146.11516998 167.06996674 146.14179993 166.08476257 C146.36801851 157.22769405 146.50170129 148.3689287 146.60717106 139.50967693 C146.67932061 133.55779543 146.78180658 127.60994267 146.95800781 121.66015625 C147.12760743 115.90732001 147.21751818 110.1581675 147.25301933 104.40299416 C147.2799332 102.21579875 147.33460045 100.02875214 147.41829109 97.84299278 C148.18645194 86.35863361 148.18645194 86.35863361 144.14011002 76.00936317 C140.39688409 72.36440868 136.19507066 69.69746835 131.63362598 67.19128323 C128.8786893 65.61861341 126.44013075 63.70166747 123.96166992 61.72973633 C123.12756592 61.09285889 122.29346191 60.45598145 121.43408203 59.79980469 C120.61302979 59.17211182 119.79197754 58.54441895 118.94604492 57.89770508 C112.62694368 53.07572555 106.30713308 48.25666158 99.93041992 43.51098633 C97.19361684 41.46923 94.48407895 39.39296489 91.77416992 37.31567383 C89.97730536 35.94717054 88.18043029 34.57868104 86.38354492 33.21020508 C85.5346167 32.55463623 84.68568848 31.89906738 83.81103516 31.22363281 C70.48240765 21.10931721 62.9480785 22.68351175 50.19604492 32.58520508 Z M47.44604492 104.77270508 C45.42646275 106.94267121 45.42646275 106.94267121 45.75854492 109.64770508 C46.7638321 112.26145175 47.33520123 113.56751985 49.69604492 115.08520508 C52.87954846 115.00561749 54.26608641 114.4735547 56.63354492 112.33520508 C57.98413751 110.0819689 57.98413751 110.0819689 57.07104492 107.46020508 C55.77552724 104.81886037 55.77552724 104.81886037 52.69604492 103.08520508 C49.62729492 102.78520508 49.62729492 102.78520508 47.44604492 104.77270508 Z M80.38354492 104.77270508 C78.43258392 106.95331931 78.43258392 106.95331931 78.75854492 109.64770508 C79.7638321 112.26145175 80.33520123 113.56751985 82.69604492 115.08520508 C85.53617291 114.94319868 87.20781731 114.41069015 89.57104492 112.83520508 C90.93895721 111.08057937 90.93895721 111.08057937 90.57104492 108.58520508 C89.63647339 105.9150007 89.00082503 104.70708738 86.69604492 103.08520508 C82.75744795 102.6922257 82.75744795 102.6922257 80.38354492 104.77270508 Z M90.69604492 163.08520508 C90.69604492 163.74520508 90.69604492 164.40520508 90.69604492 165.08520508 C91.35604492 164.75520508 92.01604492 164.42520508 92.69604492 164.08520508 C92.03604492 163.75520508 91.37604492 163.42520508 90.69604492 163.08520508 Z M66.69604492 169.08520508 C65.10635245 171.10311843 65.10635245 171.10311843 63.57104492 173.58520508 C63.0322168 174.42051758 62.49338867 175.25583008 61.93823242 176.11645508 C61.32334961 177.09098633 61.32334961 177.09098633 60.69604492 178.08520508 C63.8324624 179.65341382 67.26783975 179.46683547 70.69604492 179.08520508 C72.89983513 178.14043485 72.89983513 178.14043485 74.69604492 177.08520508 C73.74561119 175.74622925 72.78545345 174.4141508 71.82104492 173.08520508 C71.02053711 171.97145508 71.02053711 171.97145508 70.20385742 170.83520508 C69.7062793 170.25770508 69.20870117 169.68020508 68.69604492 169.08520508 C68.03604492 169.08520508 67.37604492 169.08520508 66.69604492 169.08520508 Z " fill="#0949B1" transform="translate(33.303955078125,1.914794921875)"/>
<path d="M0 0 C0.72438749 0.00040686 1.44877498 0.00081373 2.1951136 0.00123292 C4.61090122 0.0039201 7.0266003 0.01392251 9.44236755 0.02400208 C11.17895941 0.02759995 12.91555212 0.03080444 14.65214539 0.03364563 C19.36067982 0.04300043 24.06916334 0.05932956 28.77766919 0.07801604 C31.71954392 0.08966847 34.66142079 0.1003309 37.60330009 0.11075783 C46.80890728 0.14397003 56.01447852 0.18200466 65.2200399 0.22612303 C75.84575924 0.27690461 86.47136521 0.31111479 97.09718567 0.33130378 C105.31395823 0.34797317 113.53058561 0.37983183 121.74726051 0.42314988 C126.65406973 0.44865322 131.56069795 0.46758251 136.46757698 0.47052574 C141.07981745 0.47367472 145.69158663 0.49562727 150.30368042 0.5320816 C151.99635571 0.5422032 153.68908736 0.54552277 155.38178825 0.54155159 C157.692406 0.53716922 160.00156796 0.55726385 162.31201172 0.58349609 C163.60486871 0.58848208 164.8977257 0.59346807 166.22976017 0.59860516 C170.1538303 1.19443766 171.80378976 2.34076252 174.59251404 5.10920715 C178.5783351 13.08084928 176.73417319 24.69098653 176.72190857 33.43171692 C176.72326582 35.06388895 176.72504757 36.69606066 176.72721863 38.32823181 C176.73175406 42.73513589 176.73001957 47.14201641 176.72683954 51.54892087 C176.7242962 56.17448058 176.72665892 60.80003835 176.72822571 65.42559814 C176.73004147 73.19017395 176.72765648 80.95474022 176.72288513 88.71931458 C176.71744174 97.68070729 176.71920813 106.64207726 176.72471154 115.60346943 C176.72925729 123.31585177 176.72988611 131.02822729 176.72727287 138.74061054 C176.72571839 143.3389342 176.72549359 147.93724718 176.72880936 152.53557014 C176.7317094 156.85876779 176.72967332 161.18193625 176.7239151 165.50513077 C176.722599 167.08650222 176.72296196 168.66787615 176.72517776 170.2492466 C176.75242771 191.68162109 176.75242771 191.68162109 173.15501404 196.10920715 C169.15031724 199.23482417 166.40045349 199.2576766 161.48295593 199.25637817 C160.74227395 199.26005486 160.00159196 199.26373155 159.23846507 199.26751965 C156.74351875 199.27857886 154.24861404 199.28240411 151.75364685 199.28620911 C149.97000495 199.29247208 148.18636437 199.29911873 146.40272522 199.30612183 C141.54722829 199.32354727 136.69174121 199.33408785 131.83622074 199.34232736 C128.80390056 199.34747438 125.77158345 199.35355026 122.73926544 199.35983849 C113.25549167 199.37889512 103.7717257 199.39312509 94.28793645 199.40145046 C83.33382712 199.41122476 72.37991977 199.43754736 61.42588162 199.47795135 C52.96382004 199.50809446 44.50181641 199.52291763 36.03970218 199.52623147 C30.98351767 199.52858407 25.92754882 199.53757179 20.87142181 199.56269264 C16.11405458 199.58594671 11.35704538 199.59021734 6.59963608 199.57993126 C4.85413041 199.57943513 3.10860727 199.58577816 1.36315536 199.5994873 C-1.02165729 199.61716902 -3.40517986 199.61011933 -5.78999329 199.59695435 C-6.47930459 199.60792359 -7.16861589 199.61889284 -7.87881541 199.63019449 C-12.80203136 199.56466605 -15.61234289 198.18257806 -19.40748596 195.10920715 C-20.63481248 192.65455412 -20.56514495 190.99319666 -20.61280823 188.24714661 C-20.63274338 187.22129456 -20.65267853 186.1954425 -20.67321777 185.13850403 C-20.68994034 184.01121887 -20.7066629 182.88393372 -20.72389221 181.7224884 C-20.74476395 180.54452698 -20.76563568 179.36656555 -20.78713989 178.15290833 C-20.84245123 174.92052805 -20.89292645 171.68812395 -20.94011688 168.455616 C-20.97011748 166.41275135 -21.00148742 164.36991154 -21.03315735 162.32707214 C-21.46437594 134.25384362 -21.61038381 106.18540206 -21.40748596 78.10920715 C-21.40216858 77.36708481 -21.3968512 76.62496246 -21.39137268 75.86035156 C-21.31238264 65.01029312 -21.21135659 54.16060409 -21.08808899 43.31095886 C-21.05028259 39.97750936 -21.01651993 36.64405705 -20.98616028 33.31053162 C-20.94986944 29.38678963 -20.90359728 25.46328932 -20.84954834 21.53975296 C-20.83099515 20.08194474 -20.8158063 18.62408952 -20.80410767 17.16621017 C-20.78738378 15.1655844 -20.75722677 13.16508422 -20.72633362 11.16462708 C-20.71300995 10.03812241 -20.69968628 8.91161774 -20.68595886 7.75097656 C-20.40748596 5.10920715 -20.40748596 5.10920715 -18.40748596 3.10920715 C-18.41025134 4.06834613 -18.41301672 5.0274851 -18.4158659 6.0156889 C-18.4824333 29.34225953 -18.53174838 52.66881785 -18.56292248 75.99546337 C-18.57839833 87.27600668 -18.5995016 98.55648729 -18.63380432 109.83699036 C-18.66368466 119.66786135 -18.68305574 129.49868693 -18.68975145 139.32960206 C-18.69366601 144.53609831 -18.70288076 149.74246464 -18.72467613 154.9489193 C-18.74501965 159.84819426 -18.75132406 164.74728563 -18.74680901 169.64659882 C-18.74763516 171.44573527 -18.75361349 173.24487778 -18.76510239 175.04397774 C-18.7800132 177.49910852 -18.77644491 179.95354478 -18.76824951 182.40869141 C-18.77698804 183.12173453 -18.78572656 183.83477765 -18.79472989 184.56942815 C-18.75185237 189.31685273 -17.82004284 192.69665028 -14.40748596 196.10920715 C-12.03630863 196.21349464 -9.69400827 196.25253979 -7.32206726 196.24964905 C-6.19690022 196.25410573 -6.19690022 196.25410573 -5.04900253 196.25865245 C-2.51630495 196.26737693 0.01634556 196.26885084 2.54905701 196.27033997 C4.35712282 196.27496549 6.16518766 196.27998978 7.97325134 196.28538513 C12.89885593 196.29853662 17.82444687 196.3049594 22.75006628 196.30939579 C25.82406773 196.31232203 28.89806541 196.31642596 31.97206497 196.32089996 C41.58024545 196.33458199 51.18841735 196.34424525 60.7966069 196.34810185 C71.90580009 196.35258482 83.01487037 196.37014083 94.12402618 196.39910245 C102.69897176 196.42068504 111.27388267 196.4308043 119.84885514 196.43214297 C124.97589783 196.43319344 130.10282511 196.43915242 135.22983932 196.45696259 C140.0511608 196.47338429 144.87227938 196.47562764 149.69361877 196.46682358 C151.46617804 196.46605003 153.23874796 196.47043747 155.01128006 196.48028183 C157.42547442 196.49290665 159.83893981 196.48717682 162.25312805 196.47669983 C163.31289882 196.48878444 163.31289882 196.48878444 164.39407909 196.50111318 C167.26792559 196.47181074 169.13364224 196.44750707 171.48872566 194.71123886 C173.91514179 191.18955331 173.73540145 188.13362718 173.72622681 183.99291992 C173.72962514 182.8808386 173.72962514 182.8808386 173.73309213 181.74629098 C173.73944868 179.24900199 173.7386017 176.75176704 173.73777771 174.25447083 C173.74076821 172.46920704 173.74417048 170.68394391 173.74795532 168.89868164 C173.7568116 164.03911176 173.75913414 159.17955946 173.75977111 154.31998229 C173.76071911 150.26678096 173.76439623 146.21358375 173.7679432 142.160384 C173.77609428 132.59831968 173.77852688 123.03626478 173.77781677 113.47419739 C173.7772161 103.60401737 173.7877643 93.73389202 173.80356044 83.86372584 C173.81662931 75.39658354 173.82200093 66.92945911 173.82136136 58.4623068 C173.82110614 53.4023133 173.82397046 48.34236835 173.83453941 43.28238487 C173.84420916 38.52263317 173.84430728 33.76297653 173.83702278 29.00322151 C173.83597547 27.25569393 173.83834846 25.50816048 173.84438324 23.76064301 C173.8520857 21.37579814 173.84746998 18.99128293 173.8397522 16.60644531 C173.84746754 15.5681091 173.84746754 15.5681091 173.85533875 14.50879639 C173.82770129 10.64635239 173.65293349 7.43549899 171.59251404 4.10920715 C167.66871399 2.65249694 163.41481255 2.98342495 159.26731873 2.98222351 C158.53970211 2.98066352 157.81208549 2.97910353 157.06241989 2.97749627 C154.6297222 2.97351472 152.19708717 2.97666488 149.76438904 2.97981262 C148.01809147 2.97845732 146.27179418 2.97667666 144.52549744 2.97450256 C139.78593241 2.96994358 135.04638914 2.9717115 130.30682373 2.97488165 C125.34704021 2.97741316 120.38725856 2.9750655 115.42747498 2.97349548 C107.09837001 2.97167611 98.76927391 2.97407404 90.44017029 2.97883606 C80.81022303 2.98427823 71.18029694 2.98251541 61.55035019 2.97700965 C53.2827219 2.97247194 45.01509999 2.97183121 36.74747086 2.97444832 C31.80938113 2.97600746 26.87130136 2.97621477 21.93321228 2.97291183 C17.29081226 2.97002359 12.64843955 2.97202642 8.00604248 2.97780609 C6.30205328 2.97912856 4.59806178 2.97874827 2.89407349 2.97654343 C0.56858773 2.9738118 -1.75681047 2.97723774 -4.08229065 2.98222351 C-5.3838208 2.98260054 -6.68535095 2.98297756 -8.02632141 2.98336601 C-10.95864717 3.09250214 -13.56288339 3.42379823 -16.40748596 4.10920715 C-12.46419496 -0.92944247 -5.87010301 -0.01407509 0 0 Z " fill="#042083" transform="translate(23.407485961914063,1.8907928466796875)"/>
<path d="M0 0 C10.6263809 6.85059039 17.02760364 16.76444319 19.890625 29.05859375 C21.92433024 43.62179335 15.52842344 55.22005046 8.62109375 67.453125 C6.510007 71.30763732 4.89426316 74.33416291 5.16796875 78.8046875 C6.44829912 83.00132594 7.90427549 84.76470268 11.29296875 87.4921875 C14.31165309 89.00152967 16.96594104 88.66729422 20.29296875 88.4921875 C21.28296875 87.8321875 22.27296875 87.1721875 23.29296875 86.4921875 C22.79796875 88.4721875 22.79796875 88.4721875 22.29296875 90.4921875 C17.14430844 91.69592521 13.48407913 92.08729663 8.85546875 89.2421875 C6.22027039 87.43215226 5.12196532 86.23568235 3.29296875 83.4921875 C1.70846566 74.60982883 4.77957739 67.98486182 9.29296875 60.4921875 C10.34484375 59.038125 10.34484375 59.038125 11.41796875 57.5546875 C17.1767804 48.14862847 18.97404612 37.07592417 16.59765625 26.35546875 C13.30705848 15.33611404 6.69749392 6.65723291 -3.39453125 0.98046875 C-16.2567796 -4.98884598 -28.82072481 -4.39845123 -41.98046875 0.3046875 C-51.83426807 4.66684372 -57.4204681 11.71640908 -61.61328125 21.44140625 C-65.60340085 32.57098984 -64.2304759 43.74305456 -59.70703125 54.4921875 C-56.95382329 59.96679648 -53.83775283 65.22774898 -50.70703125 70.4921875 C-48.86372404 74.17880192 -49.35082187 78.45938844 -49.70703125 82.4921875 C-51.32790063 86.30123055 -53.26045715 88.27173976 -56.70703125 90.4921875 C-59.1796875 91.07421875 -59.1796875 91.07421875 -61.76953125 91.3046875 C-62.62675781 91.39363281 -63.48398437 91.48257813 -64.3671875 91.57421875 C-66.70703125 91.4921875 -66.70703125 91.4921875 -69.70703125 89.4921875 C-69.70703125 88.8321875 -69.70703125 88.1721875 -69.70703125 87.4921875 C-70.36703125 87.4921875 -71.02703125 87.4921875 -71.70703125 87.4921875 C-74.10921143 83.33571806 -74.43537643 79.16091531 -75.046875 74.46484375 C-76.09678235 69.73715443 -77.67849351 67.17787932 -81.70703125 64.4921875 C-84.33234649 64.32505181 -84.33234649 64.32505181 -86.70703125 64.4921875 C-86.24098644 67.00882948 -85.69096914 68.51463326 -84.18359375 70.62109375 C-82.27142167 74.33920613 -82.39363541 77.66654683 -82.39453125 81.7421875 C-82.1730846 89.00424398 -81.18947108 94.26731196 -75.70703125 99.4921875 C-73.39874053 101.24750308 -71.39267605 102.27143987 -68.70703125 103.4921875 C-67.90265625 103.9046875 -67.09828125 104.3171875 -66.26953125 104.7421875 C-60.38336556 106.4649677 -55.30898903 105.73297061 -49.70703125 103.4921875 C-49.70703125 104.1521875 -49.70703125 104.8121875 -49.70703125 105.4921875 C-54.93261058 108.66304875 -60.80877079 108.05089562 -66.70703125 107.4921875 C-72.84187633 105.81264794 -77.94538357 101.54898476 -81.70703125 96.4921875 C-84.6835021 90.74787693 -85.1404286 85.76618667 -85.14648438 79.36523438 C-85.28939418 74.23526528 -86.73462693 71.58445557 -89.70703125 67.4921875 C-89.45703125 64.6171875 -89.45703125 64.6171875 -88.70703125 62.4921875 C-84.90998181 61.38085596 -82.50173454 61.25431431 -79.01953125 63.0546875 C-75.47414134 65.38183771 -74.0747029 67.38917254 -72.70703125 71.4921875 C-72.23932914 74.81576977 -71.83123407 78.12595651 -71.52734375 81.46875 C-70.48609517 85.30649476 -69.03765481 86.42112711 -65.70703125 88.4921875 C-61.32820104 89.0511871 -57.69058864 88.3934308 -53.70703125 86.4921875 C-51.17588477 82.86054256 -51.50617055 79.16990095 -52.1015625 74.953125 C-53.59351544 68.88905822 -56.9419115 63.60732493 -60.33203125 58.4296875 C-62.96078073 54.34603265 -64.4153757 50.15298656 -65.70703125 45.4921875 C-66.04734375 44.285625 -66.04734375 44.285625 -66.39453125 43.0546875 C-67.83338668 31.25607294 -65.44850804 20.17946014 -58.328125 10.484375 C-44.08562284 -7.01845898 -19.69158502 -10.96818444 0 0 Z " fill="#07227B" transform="translate(124.70703125,62.5078125)"/>
<path d="M0 0 C0.71542969 -0.04898437 1.43085937 -0.09796875 2.16796875 -0.1484375 C8.93682176 1.19133547 14.85804267 6.76759721 20.25 10.875 C20.93030273 11.38909424 21.61060547 11.90318848 22.31152344 12.43286133 C28.13621942 16.84129672 33.93551967 21.28333754 39.73388672 25.72631836 C46.37775046 30.81586968 53.06942941 35.83977017 59.77978516 40.84130859 C61.91671295 42.43450643 64.05211389 44.02973666 66.1875 45.625 C66.85402588 46.1207251 67.52055176 46.6164502 68.20727539 47.12719727 C68.84785889 47.60600342 69.48844238 48.08480957 70.1484375 48.578125 C70.99220947 49.20702637 70.99220947 49.20702637 71.85302734 49.84863281 C72.49965332 50.35233398 73.1462793 50.85603516 73.8125 51.375 C74.82853806 52.02887695 75.84457611 52.68275391 76.8914032 53.35644531 C78.84591198 55.00557935 79.69978789 55.95057789 80.36114883 58.44095993 C80.55901858 61.0441556 80.56596878 63.58798133 80.50952148 66.19824219 C80.51200394 67.18247665 80.51448639 68.16671112 80.51704407 69.18077087 C80.51796119 72.42859197 80.47618036 75.67435666 80.43359375 78.921875 C80.4249394 81.17677002 80.41879357 83.43167595 80.41505432 85.68658447 C80.39782793 91.61804757 80.34369769 97.54864487 80.28277588 103.47979736 C80.23911984 108.33504767 80.2216185 113.19022674 80.20550442 118.04563522 C80.18594334 123.81693258 80.15535122 129.58814791 80.12109375 135.359375 C80.11466795 136.4674929 80.10824215 137.57561081 80.10162163 138.71730804 C80.0807426 141.83473688 80.05245042 144.95199541 80.02124023 148.06933594 C80.01540924 149.00231003 80.00957825 149.93528412 80.00357056 150.89653015 C79.92783202 157.25966798 79.92783202 157.25966798 78.8125 158.375 C73.08024659 158.71686913 67.34586571 158.77477068 61.60449219 158.83496094 C59.67032022 158.86150967 57.73628824 158.90237068 55.80273438 158.95800781 C53.01113786 159.03741237 50.22225008 159.0703181 47.4296875 159.09375 C46.5721286 159.12674194 45.7145697 159.15973389 44.83102417 159.19372559 C39.89976381 159.17743696 37.40884968 158.50612361 33.86352539 154.96850586 C32.83495294 153.7805857 31.81661369 152.58366508 30.8125 151.375 C29.34999657 150.04395755 27.87458742 148.72661901 26.375 147.4375 C25.35599609 146.55771484 25.35599609 146.55771484 24.31640625 145.66015625 C23.82011719 145.23605469 23.32382813 144.81195313 22.8125 144.375 C26.88764725 144.375 27.82529664 145.92992255 30.75 148.6875 C45.8703735 162.85002179 44.44862051 156.375 76.8125 156.375 C77.1425 123.375 77.4725 90.375 77.8125 56.375 C76.4925 55.715 75.1725 55.055 73.8125 54.375 C72.1423755 53.2004699 70.50007648 51.9861081 68.875 50.75 C67.29912109 49.55503906 67.29912109 49.55503906 65.69140625 48.3359375 C64.39825591 47.34919627 63.10530761 46.36219023 61.8125 45.375 C60.13422103 44.09621445 58.45582755 42.81757918 56.77734375 41.5390625 C54.02383907 39.44121341 51.27058725 37.34303631 48.51806641 35.24389648 C43.04577059 31.07147869 37.56740411 26.90926751 32.046875 22.80078125 C29.31007192 20.75902492 26.60053403 18.68275981 23.890625 16.60546875 C22.09376043 15.23696547 20.29688537 13.86847596 18.5 12.5 C17.65107178 11.84443115 16.80214355 11.1888623 15.92749023 10.51342773 C8.04597977 4.4666409 8.04597977 4.4666409 -1.4375 2.25 C-10.45890555 4.95642167 -17.67122927 11.37954732 -24.6796875 17.45703125 C-27.13252502 19.33295527 -29.27764264 20.38940315 -32.1875 21.375 C-11.83294066 0.5445247 -11.83294066 0.5445247 0 0 Z " fill="#0F3A8D" transform="translate(101.1875,23.625)"/>
<path d="M0 0 C0.66 0.33 1.32 0.66 2 1 C-4.54559254 6.57460587 -11.14336872 11.93276337 -18.14453125 16.93359375 C-22.92645839 20.39411285 -27.68788386 23.94109209 -32.23112488 27.71020508 C-34 29 -34 29 -36.2636261 29.9987793 C-39.41090428 31.66707163 -40.97123296 33.03617221 -43 36 C-44.75295037 43.20744456 -44.04251663 50.98763203 -43.87890625 58.33984375 C-43.86211036 60.54941717 -43.84930382 62.75902421 -43.84031677 64.96864319 C-43.80603015 70.77114164 -43.71769008 76.57159717 -43.61798096 82.37329102 C-43.52574509 88.29870976 -43.48477289 94.22446019 -43.43945312 100.15039062 C-43.34306532 111.76796695 -43.18482026 123.38349362 -43 135 C-32.77 135 -22.54 135 -12 135 C-11.67 135.66 -11.34 136.32 -11 137 C-22.22 137 -33.44 137 -45 137 C-45.36236409 123.77789172 -45.65549043 110.55911056 -45.82899475 97.33314896 C-45.9122963 91.19075471 -46.02513505 85.05194938 -46.20703125 78.91162109 C-46.38167747 72.97848419 -46.47670031 67.04878344 -46.51803589 61.11327362 C-46.5474643 58.85627891 -46.60494258 56.5994601 -46.69168091 54.34394073 C-47.32606329 37.15432891 -47.32606329 37.15432891 -43.44888306 31.89656067 C-39.72102825 28.23442211 -35.52796692 25.58350722 -30.95375061 23.10097504 C-28.10929002 21.49806826 -25.63495044 19.57033759 -23.0625 17.5625 C-22.13050781 16.86382812 -21.19851562 16.16515625 -20.23828125 15.4453125 C-13.45960815 10.33998078 -6.73434679 5.1635592 0 0 Z " fill="#021985" transform="translate(67,45)"/>
<path d="M0 0 C0.72438749 0.00040686 1.44877498 0.00081373 2.1951136 0.00123292 C4.61090122 0.0039201 7.0266003 0.01392251 9.44236755 0.02400208 C11.17895941 0.02759995 12.91555212 0.03080444 14.65214539 0.03364563 C19.36067982 0.04300043 24.06916334 0.05932956 28.77766919 0.07801604 C31.71954392 0.08966847 34.66142079 0.1003309 37.60330009 0.11075783 C46.80890728 0.14397003 56.01447852 0.18200466 65.2200399 0.22612303 C75.84575924 0.27690461 86.47136521 0.31111479 97.09718567 0.33130378 C105.31395823 0.34797317 113.53058561 0.37983183 121.74726051 0.42314988 C126.65406973 0.44865322 131.56069795 0.46758251 136.46757698 0.47052574 C141.07981745 0.47367472 145.69158663 0.49562727 150.30368042 0.5320816 C151.99635571 0.5422032 153.68908736 0.54552277 155.38178825 0.54155159 C157.692406 0.53716922 160.00156796 0.55726385 162.31201172 0.58349609 C163.60486871 0.58848208 164.8977257 0.59346807 166.22976017 0.59860516 C170.1538303 1.19443766 171.80378976 2.34076252 174.59251404 5.10920715 C177.79613262 11.51644431 176.72991493 20.69686812 176.69017029 27.71076965 C176.68804787 29.15448441 176.68804787 29.15448441 176.68588257 30.62736511 C176.68034211 33.66301247 176.6678012 36.69858257 176.65501404 39.73420715 C176.64999133 41.80842483 176.64542978 43.88264367 176.64134216 45.9568634 C176.63039227 51.00767385 176.61316967 56.05842746 176.59251404 61.10920715 C175.60251404 61.60420715 175.60251404 61.60420715 174.59251404 62.10920715 C174.58442719 61.45632217 174.57634033 60.80343719 174.56800842 60.13076782 C174.4819303 53.33358834 174.38242488 46.5366994 174.27513123 39.73982239 C174.2368556 37.2034137 174.20200028 34.66695099 174.17063904 32.13044739 C174.1249584 28.48384804 174.06696774 24.83762013 174.00657654 21.1912384 C173.98924973 19.49098259 173.98924973 19.49098259 173.97157288 17.75637817 C173.94176834 16.16529488 173.94176834 16.16529488 173.91136169 14.54206848 C173.89137619 13.14641411 173.89137619 13.14641411 173.87098694 11.7225647 C173.5557601 8.76428606 173.09332122 6.69027305 171.59251404 4.10920715 C167.52323105 2.89971344 163.48665339 2.98344576 159.26731873 2.98222351 C158.53970211 2.98066352 157.81208549 2.97910353 157.06241989 2.97749627 C154.6297222 2.97351472 152.19708717 2.97666488 149.76438904 2.97981262 C148.01809147 2.97845732 146.27179418 2.97667666 144.52549744 2.97450256 C139.78593241 2.96994358 135.04638914 2.9717115 130.30682373 2.97488165 C125.34704021 2.97741316 120.38725856 2.9750655 115.42747498 2.97349548 C107.09837001 2.97167611 98.76927391 2.97407404 90.44017029 2.97883606 C80.81022303 2.98427823 71.18029694 2.98251541 61.55035019 2.97700965 C53.2827219 2.97247194 45.01509999 2.97183121 36.74747086 2.97444832 C31.80938113 2.97600746 26.87130136 2.97621477 21.93321228 2.97291183 C17.29081226 2.97002359 12.64843955 2.97202642 8.00604248 2.97780609 C6.30205328 2.97912856 4.59806178 2.97874827 2.89407349 2.97654343 C0.56858773 2.9738118 -1.75681047 2.97723774 -4.08229065 2.98222351 C-5.3838208 2.98260054 -6.68535095 2.98297756 -8.02632141 2.98336601 C-10.95864717 3.09250214 -13.56288339 3.42379823 -16.40748596 4.10920715 C-12.46419496 -0.92944247 -5.87010301 -0.01407509 0 0 Z " fill="#062171" transform="translate(23.407485961914063,1.8907928466796875)"/>
<path d="M0 0 C0.598125 0.165 1.19625 0.33 1.8125 0.5 C4.11344336 1.1114124 4.11344336 1.1114124 7 1 C7.66 1.33 8.32 1.66 9 2 C9 2.66 9 3.32 9 4 C5.53846154 7 5.53846154 7 3 7 C2.67 7.66 2.34 8.32 2 9 C1.6551185 9.55352016 1.31023701 10.10704033 0.95490456 10.67733383 C-0.37138395 13.90333734 -0.26357739 16.67710978 -0.2784729 20.16265869 C-0.2842653 20.88478161 -0.2900577 21.60690452 -0.29602563 22.35090995 C-0.31303181 24.77076906 -0.31590264 27.19043752 -0.31884766 29.61035156 C-0.32814541 31.34491443 -0.33831386 33.07947281 -0.34928894 34.81402588 C-0.37662021 39.52437308 -0.39174763 44.23469032 -0.40471697 48.94509602 C-0.42033381 53.8672206 -0.44712864 58.78928389 -0.4727478 63.71136475 C-0.51956121 73.0326911 -0.55629293 82.35402895 -0.58942068 91.67541289 C-0.62762396 102.28719167 -0.67703882 112.89890892 -0.72740483 123.51063585 C-0.8307628 145.34037848 -0.92001064 167.17016006 -1 189 C-1.33 189 -1.66 189 -2 189 C-2.04672451 165.39105175 -2.08199107 141.78211044 -2.10362434 118.17312527 C-2.11393611 107.21102286 -2.12799457 96.24894919 -2.15087891 85.28686523 C-2.1708158 75.73211573 -2.18371717 66.17738703 -2.18817699 56.6226173 C-2.19078385 51.56364145 -2.19690912 46.50472513 -2.21146011 41.44576836 C-2.2250487 36.68276225 -2.22922004 31.91984013 -2.22621536 27.15681648 C-2.22676495 25.41012745 -2.23073478 23.66343556 -2.23841095 21.91676331 C-2.2483922 19.52814148 -2.24595735 17.13983488 -2.24050903 14.75120544 C-2.24633472 14.06344274 -2.2521604 13.37568004 -2.25816262 12.66707605 C-2.22986925 8.06354576 -1.41493626 4.33192727 0 0 Z " fill="#1747A9" transform="translate(6,3)"/>
<path d="M0 0 C0.71542969 -0.04898437 1.43085937 -0.09796875 2.16796875 -0.1484375 C8.93682176 1.19133547 14.85804267 6.76759721 20.25 10.875 C20.93030273 11.38909424 21.61060547 11.90318848 22.31152344 12.43286133 C28.13621942 16.84129672 33.93551967 21.28333754 39.73388672 25.72631836 C47.08321715 31.3562945 54.48384717 36.91622541 61.9296875 42.41796875 C63.36979258 43.48697794 64.80989675 44.55598835 66.25 45.625 C66.92490479 46.1207251 67.59980957 46.6164502 68.29516602 47.12719727 C72.12137253 49.97279172 75.53244387 52.91166521 78.8125 56.375 C74.82159664 55.78340727 72.49061778 53.79092636 69.375 51.3125 C68.2220398 50.40537788 67.06833896 49.49919665 65.9140625 48.59375 C65.27114258 48.08714844 64.62822266 47.58054688 63.96582031 47.05859375 C59.75856036 43.76910797 55.50069219 40.54552692 51.25 37.3125 C50.3317041 36.61318359 49.4134082 35.91386719 48.46728516 35.19335938 C43.01058689 31.03979714 37.54827712 26.89503283 32.046875 22.80078125 C29.31007192 20.75902492 26.60053403 18.68275981 23.890625 16.60546875 C22.09376043 15.23696547 20.29688537 13.86847596 18.5 12.5 C17.65107178 11.84443115 16.80214355 11.1888623 15.92749023 10.51342773 C8.04597977 4.4666409 8.04597977 4.4666409 -1.4375 2.25 C-10.45890555 4.95642167 -17.67122927 11.37954732 -24.6796875 17.45703125 C-27.13252502 19.33295527 -29.27764264 20.38940315 -32.1875 21.375 C-11.83294066 0.5445247 -11.83294066 0.5445247 0 0 Z " fill="#041F79" transform="translate(101.1875,23.625)"/>
<path d="M0 0 C1 1 1 1 1.25 3.4375 C1.1675 4.283125 1.085 5.12875 1 6 C0.01 6.66 -0.98 7.32 -2 8 C-2.2828139 10.57509498 -2.41032759 12.98433477 -2.4375 15.5625 C-2.6872622 22.15446419 -3.43882362 27.29984228 -7 33 C-7.43441406 33.71800781 -7.86882812 34.43601563 -8.31640625 35.17578125 C-11.65081316 40.14559209 -15.12232314 43.47333069 -21 45 C-28.68013586 45.91249139 -34.77125615 45.81312025 -41 41 C-41.33 40.34 -41.66 39.68 -42 39 C-40.9790625 39.433125 -40.9790625 39.433125 -39.9375 39.875 C-32.92240674 42.56163146 -27.3845602 43.68441208 -20 42 C-13.84577389 38.80891979 -9.87479471 33.898477 -6.80078125 27.71484375 C-5.48857246 23.26613591 -5.4966087 18.69892836 -5.50317383 14.07910156 C-5.42315023 9.07336988 -4.5363619 6.55741167 -1 3 C-2.04342781 1.76163834 -2.04342781 1.76163834 -4.3125 1.625 C-7.17901533 1.75511758 -7.17901533 1.75511758 -9.1875 4.125 C-12.43017515 9.26855369 -13.23932372 13.98607858 -13.55859375 19.94921875 C-14.09739868 22.452516 -15.06880459 23.37779586 -17 25 C-16.7697175 22.47598256 -16.51645793 19.95774797 -16.25 17.4375 C-16.188125 16.73302734 -16.12625 16.02855469 -16.0625 15.30273438 C-15.37564306 9.09240284 -13.55316503 4.15003371 -8.625 0 C-5.33480284 -1.25340844 -3.36094069 -0.91662019 0 0 Z " fill="#08227B" transform="translate(166,125)"/>
<path d="M0 0 C0.66 0.33 1.32 0.66 2 1 C-4.54414771 6.57337536 -11.1395832 11.93183396 -18.140625 16.9296875 C-21.37105414 19.26865942 -24.53296811 21.68521647 -27.6875 24.125 C-32.42841327 27.79128766 -37.194135 31.41915941 -42 35 C-42.66 34.67 -43.32 34.34 -44 34 C-37.27691197 28.3594431 -30.39977806 22.99175221 -23.36328125 17.75195312 C-18.04483513 13.79087134 -12.76429919 9.78274804 -7.5 5.75 C-6.75153809 5.17668945 -6.00307617 4.60337891 -5.23193359 4.01269531 C-3.4874889 2.67573911 -1.74367088 1.33796528 0 0 Z " fill="#062076" transform="translate(67,45)"/>
<path d="M0 0 C3.11569405 1.40171536 5.4114956 3.08408908 7.9375 5.375 C9.28476663 6.59102197 10.63934634 7.7989761 12 9 C13.03012207 10.03519775 13.03012207 10.03519775 14.08105469 11.09130859 C18.07836567 13.70514075 21.13093727 13.5103294 25.80078125 13.390625 C27.0553437 13.38213531 27.0553437 13.38213531 28.33525085 13.37347412 C30.99492711 13.35116268 33.65323405 13.30097788 36.3125 13.25 C38.12042319 13.22992815 39.92836759 13.21167858 41.73632812 13.1953125 C46.15807611 13.15131527 50.57880625 13.08232546 55 13 C55 13.66 55 14.32 55 15 C49.43171969 15.17371049 43.86503291 15.30037715 38.29467773 15.38452148 C36.4021455 15.4196133 34.50980156 15.46730138 32.61791992 15.52807617 C29.88933815 15.61350138 27.16327377 15.65279829 24.43359375 15.68359375 C23.59477158 15.71972275 22.7559494 15.75585175 21.89170837 15.79307556 C17.00273404 15.79630545 14.57375143 15.09948784 11.0625 11.59350586 C10.03117513 10.40469171 9.00913287 9.20770895 8 8 C6.53720375 6.68982294 5.06171508 5.39334181 3.5625 4.125 C2.35672018 3.10454877 1.16279842 2.06917049 0 1 C0 0.67 0 0.34 0 0 Z " fill="#00138F" transform="translate(124,167)"/>
<path d="M0 0 C3.16031676 0.31173193 4.60204879 0.55802764 6.765625 2.9609375 C7.25546875 3.75757813 7.7453125 4.55421875 8.25 5.375 C8.75015625 6.16648438 9.2503125 6.95796875 9.765625 7.7734375 C11 10 11 10 12 13 C8.33012779 14.22329074 5.66032178 13.88021006 1.8125 13.5625 C0.54019531 13.46066406 -0.73210937 13.35882813 -2.04296875 13.25390625 C-3.01878906 13.17011719 -3.99460937 13.08632812 -5 13 C-5.68359375 11.296875 -5.68359375 11.296875 -6 9 C-4.78515625 6.640625 -4.78515625 6.640625 -3.0625 4.25 C-2.49660156 3.45078125 -1.93070312 2.6515625 -1.34765625 1.828125 C-0.90292969 1.22484375 -0.45820312 0.6215625 0 0 Z M1 2 C-0.58969247 4.01791336 -0.58969247 4.01791336 -2.125 6.5 C-2.66382812 7.3353125 -3.20265625 8.170625 -3.7578125 9.03125 C-4.37269531 10.00578125 -4.37269531 10.00578125 -5 11 C-1.86358252 12.56820874 1.57179483 12.38163039 5 12 C7.20379021 11.05522977 7.20379021 11.05522977 9 10 C8.04956626 8.66102417 7.08940853 7.32894573 6.125 6 C5.32449219 4.88625 5.32449219 4.88625 4.5078125 3.75 C4.01023437 3.1725 3.51265625 2.595 3 2 C2.34 2 1.68 2 1 2 Z " fill="#072884" transform="translate(99,169)"/>
<path d="M0 0 C2.375 1.625 2.375 1.625 4 4 C4.5 7 4.5 7 4 10 C2.20412315 12.37312298 0.73136969 13.64611144 -1.9375 14.9375 C-4.94842003 15.02874 -6.58554326 13.69664528 -9 12 C-10 11 -10 11 -10.3125 7.6875 C-10 4 -10 4 -8.375 1.5625 C-5.28314769 -0.47161336 -3.63632575 -0.60605429 0 0 Z M-7.25 2.6875 C-9.26958218 4.85746614 -9.26958218 4.85746614 -8.9375 7.5625 C-7.93221282 10.17624667 -7.3608437 11.48231477 -5 13 C-1.81649646 12.92041241 -0.42995852 12.38834963 1.9375 10.25 C3.28809259 7.99676382 3.28809259 7.99676382 2.375 5.375 C1.07948232 2.73365529 1.07948232 2.73365529 -2 1 C-5.06875 0.7 -5.06875 0.7 -7.25 2.6875 Z " fill="#052385" transform="translate(88,104)"/>
<path d="M0 0 C2.375 1.0625 2.375 1.0625 4 3 C4.56988508 6.91795996 4.59460908 9.07240983 2.4375 12.4375 C-0.92759017 14.59460908 -3.08204004 14.56988508 -7 14 C-9.62541413 11.79803976 -9.9445448 10.38026421 -10.4375 7 C-10 4 -10 4 -8.375 1.625 C-5.30522452 -0.4753727 -3.65443439 -0.53293835 0 0 Z M-7.3125 2.6875 C-9.263461 4.86811423 -9.263461 4.86811423 -8.9375 7.5625 C-7.93221282 10.17624667 -7.3608437 11.48231477 -5 13 C-2.15987202 12.8579936 -0.48822761 12.32548508 1.875 10.75 C3.24291229 8.99537429 3.24291229 8.99537429 2.875 6.5 C1.94042847 3.82979562 1.30478011 2.6218823 -1 1 C-4.93859697 0.60702062 -4.93859697 0.60702062 -7.3125 2.6875 Z " fill="#04237F" transform="translate(121,104)"/>
<path d="M0 0 C1.33841672 0.31229724 2.67139075 0.64830932 4 1 C4.99 1 5.98 1 7 1 C7.66 1.33 8.32 1.66 9 2 C9 2.66 9 3.32 9 4 C5.53846154 7 5.53846154 7 3 7 C2.67 7.66 2.34 8.32 2 9 C1.01268258 10.34275169 0.01405257 11.67732273 -1 13 C-1.02686553 11.02090602 -1.04633375 9.04171029 -1.0625 7.0625 C-1.07410156 5.96035156 -1.08570313 4.85820312 -1.09765625 3.72265625 C-1 1 -1 1 0 0 Z " fill="#2354B5" transform="translate(6,3)"/>
<path d="M0 0 C0.66 0 1.32 0 2 0 C2.6496875 1.175625 2.6496875 1.175625 3.3125 2.375 C5.40595523 5.63148591 6.30733312 5.92576963 10 7 C13.26624912 7.37113982 16.52848727 7.50745145 19.8125 7.625 C20.69615234 7.66367188 21.57980469 7.70234375 22.49023438 7.7421875 C24.65982972 7.83600784 26.82988547 7.91907326 29 8 C29 8.33 29 8.66 29 9 C25.45861382 9.11681812 21.9177276 9.187455 18.375 9.25 C17.37597656 9.28351563 16.37695312 9.31703125 15.34765625 9.3515625 C9.25836525 9.43221536 5.56599979 9.20071981 1 5 C0.125 2.25 0.125 2.25 0 0 Z " fill="#102F78" transform="translate(3,192)"/>
<path d="M0 0 C0.99 0.33 1.98 0.66 3 1 C2.14535156 1.78246094 1.29070312 2.56492188 0.41015625 3.37109375 C-0.70574007 4.39321727 -1.82162489 5.41535333 -2.9375 6.4375 C-3.78344727 7.2119043 -3.78344727 7.2119043 -4.64648438 8.00195312 C-7.35998326 10.46224667 -7.35998326 10.46224667 -10 13 C-12.33297433 13.04092937 -14.66705225 13.04241723 -17 13 C-16.67 12.34 -16.34 11.68 -16 11 C-15.27425781 10.89816406 -14.54851563 10.79632813 -13.80078125 10.69140625 C-10.04349247 9.76387471 -7.8877449 7.55843196 -5.1875 4.9375 C-4.68541016 4.46505859 -4.18332031 3.99261719 -3.66601562 3.50585938 C-2.43577211 2.34591548 -1.21672935 1.17411185 0 0 Z " fill="#04237B" transform="translate(74,169)"/>
<path d="M0 0 C4.93551612 4.77630592 4.93551612 4.77630592 5.16796875 9.1875 C5.17441406 10.445625 5.18085937 11.70375 5.1875 13 C5.20167969 14.258125 5.21585938 15.51625 5.23046875 16.8125 C5 20 5 20 3 22 C2.92652344 20.31970703 2.92652344 20.31970703 2.8515625 18.60546875 C2.77652144 17.13278797 2.70097418 15.66013293 2.625 14.1875 C2.57859375 13.08051758 2.57859375 13.08051758 2.53125 11.95117188 C2.32653852 8.18106885 2.13566173 6.20349259 0 3 C0 2.01 0 1.02 0 0 Z " fill="#0B2E8E" transform="translate(37,130)"/>
<path d="M0 0 C3.11569405 1.40171536 5.4114956 3.08408908 7.9375 5.375 C11.80717192 8.83468809 15.67512584 12.11675056 20 15 C17.9375 15.4375 17.9375 15.4375 15 15 C13.12942944 13.47448614 11.55243533 11.79142785 9.9140625 10.01953125 C7.29249543 7.25351048 4.41016463 4.84237842 1.50390625 2.3828125 C1.00761719 1.92648438 0.51132813 1.47015625 0 1 C0 0.67 0 0.34 0 0 Z " fill="#061C76" transform="translate(124,167)"/>
<path d="M0 0 C2.875 2.0625 2.875 2.0625 5 4 C4.67 5.32 4.34 6.64 4 8 C3.484375 7.195625 2.96875 6.39125 2.4375 5.5625 C-0.63205757 2.33552922 -2.64868459 2.25103743 -7 2 C-7.33 3.65 -7.66 5.3 -8 7 C-8.66 6.34 -9.32 5.68 -10 5 C-9.625 2.375 -9.625 2.375 -9 0 C-5.39965901 -1.20011366 -3.65462165 -0.95020163 0 0 Z " fill="#071C6E" transform="translate(45,125)"/>
<path d="M0 0 C0.99 0.33 1.98 0.66 3 1 C9.29033273 2.779084 14.87272599 2.4509096 21 0 C21 0.66 21 1.32 21 2 C17.47873148 4.17490115 14.59357533 4.26877787 10.5 4.25 C9.3759375 4.25515625 8.251875 4.2603125 7.09375 4.265625 C4.14958257 4.01284295 2.48304495 3.53364541 0 2 C0 1.34 0 0.68 0 0 Z " fill="#062182" transform="translate(54,166)"/>
<path d="M0 0 C0.33 0.99 0.66 1.98 1 3 C-2.66987221 4.22329074 -5.33967822 3.88021006 -9.1875 3.5625 C-10.45980469 3.46066406 -11.73210937 3.35882813 -13.04296875 3.25390625 C-14.01878906 3.17011719 -14.99460937 3.08632812 -16 3 C-16 2.34 -16 1.68 -16 1 C-15.32453125 1.01160156 -14.6490625 1.02320313 -13.953125 1.03515625 C-13.06109375 1.04417969 -12.1690625 1.05320313 -11.25 1.0625 C-10.36828125 1.07410156 -9.4865625 1.08570313 -8.578125 1.09765625 C-5.61586765 0.98544953 -2.93496964 0 0 0 Z " fill="#011D89" transform="translate(110,179)"/>
<path d="M0 0 C0.66 0 1.32 0 2 0 C2.6496875 1.175625 2.6496875 1.175625 3.3125 2.375 C5.26798281 5.41686215 6.60211849 5.98981901 10 7 C10 7.33 10 7.66 10 8 C3.52864939 7.51159618 3.52864939 7.51159618 1.0625 5.125 C0 3 0 3 0 0 Z " fill="#092478" transform="translate(3,192)"/>
<path d="M0 0 C1.32 0.33 2.64 0.66 4 1 C1.69 2.65 -0.62 4.3 -3 6 C-3.66 5.34 -4.32 4.68 -5 4 C-2.75 1.9375 -2.75 1.9375 0 0 Z " fill="#1145BA" transform="translate(25,74)"/>
<path d="M0 0 C1.32 0.33 2.64 0.66 4 1 C-0.455 3.97 -0.455 3.97 -5 7 C-5 6.01 -5 5.02 -5 4 C-4.01 3.67 -3.02 3.34 -2 3 C-1.34 2.01 -0.68 1.02 0 0 Z " fill="#1146B7" transform="translate(88,26)"/>
<path d="M0 0 C4.43090471 1.20842856 6.98112756 2.51668565 10 6 C6.08406554 5.21681311 2.63593365 3.60820142 -1 2 C-0.67 1.34 -0.34 0.68 0 0 Z " fill="#072387" transform="translate(104,24)"/>
<path d="M0 0 C0.33 0 0.66 0 1 0 C1 3.63 1 7.26 1 11 C1.66 11.33 2.32 11.66 3 12 C2.01 12.33 1.02 12.66 0 13 C-0.33 12.67 -0.66 12.34 -1 12 C-0.90997602 9.97591245 -0.75358962 7.95455713 -0.5625 5.9375 C-0.46066406 4.83277344 -0.35882812 3.72804687 -0.25390625 2.58984375 C-0.17011719 1.73519531 -0.08632813 0.88054687 0 0 Z " fill="#1046B8" transform="translate(21,171)"/>
<path d="M0 0 C0.66 0 1.32 0 2 0 C1.25 6.625 1.25 6.625 -1 10 C-1 9.34 -1 8.68 -1 8 C-1.66 7.67 -2.32 7.34 -3 7 C-2.34 6.67 -1.68 6.34 -1 6 C-0.34227572 2.97065509 -0.34227572 2.97065509 0 0 Z " fill="#114ABB" transform="translate(127,131)"/>
<path d="M0 0 C1.32 0 2.64 0 4 0 C3.67 1.32 3.34 2.64 3 4 C1.68 4.33 0.36 4.66 -1 5 C-0.67 3.35 -0.34 1.7 0 0 Z " fill="#0A2DA4" transform="translate(76,164)"/>
<path d="M0 0 C2.97 1.65 5.94 3.3 9 5 C9 5.33 9 5.66 9 6 C6.75 6.25 6.75 6.25 4 6 C1.6875 4.125 1.6875 4.125 0 2 C0 1.34 0 0.68 0 0 Z " fill="#082682" transform="translate(135,176)"/>
</svg>
